<svg width="125" height="58" viewBox="0 0 125 58" fill="none" xmlns="http://www.w3.org/2000/svg">
<g clip-path="url(#clip0_2_3)">
<path d="M9.57672 7.02597L21.4467 28.4439C21.4467 22.0647 22.053 20.2754 23.8401 17.4115C23.8902 17.3299 23.9419 17.2498 23.9951 17.1652C24.6485 16.133 25.4509 14.9466 26.4265 13.3582C26.5496 13.121 26.6636 12.8882 26.7715 12.657C30.5964 4.57013 26.6226 -0.0559046 25.4403 1.28536e-05C24.2246 0.0589529 21.5029 4.2316 17.8557 4.2316C14.0566 4.2316 11.2985 5.80183 10.1572 6.5892C9.77579 6.85066 9.5752 7.02597 9.5752 7.02597H9.57672Z" fill="#3383FE"/>
<path d="M23.9936 17.1667C24.6471 16.1345 25.4494 14.9481 26.425 13.3597C26.5481 13.1225 26.6621 12.8897 26.77 12.6585C25.9524 11.9603 24.8826 11.4978 23.8614 10.8435C22.8752 10.2178 22.6989 9.09188 21.8783 8.31811C18.5077 5.13988 13.7588 4.18324 10.1572 6.59071C10.0995 6.63 10.0478 6.66627 9.9992 6.70254C9.21203 7.25265 8.48412 7.96598 7.84131 8.85763C6.79579 10.4022 5.96303 12.3729 5.33998 14.7728C3.87808 20.4038 3.29757 26.1255 3.5939 31.941C3.73219 34.6688 3.90695 37.3982 4.11058 40.1246C4.20784 41.4152 4.11666 42.9204 3.84313 44.6448C3.46777 46.6654 2.77482 48.2628 1.76425 49.4265C1.10777 50.1867 -0.0258882 51.2204 -5.42968e-05 52.2481C0.0212207 53.1427 1.00899 53.5795 1.78553 53.6762C5.15154 54.1039 9.03727 51.9473 11.5933 49.9751C11.6966 49.895 11.7939 49.901 11.882 49.9947C14.6782 52.7619 18.9788 54.1402 22.8235 54.6873L24.1015 54.849C24.2884 54.8747 24.3279 54.8112 24.2216 54.6555C23.6076 53.779 23.5529 52.4929 23.9435 51.6058C23.9982 51.4773 24.0407 51.4818 24.0666 51.6179C24.6045 54.314 26.1834 56.0958 28.7972 56.9663C31.7939 57.9637 34.818 58.2403 37.8725 57.7945C38.7995 57.66 39.6277 57.3925 40.3678 56.998C40.7127 56.8152 40.6899 56.3164 40.3328 56.1638C39.5548 55.8374 38.8345 55.381 38.1749 54.7976C37.8421 54.5029 37.8968 54.3291 38.3421 54.2807C42.5971 53.8258 46.6014 52.9584 50.4263 51.296C50.5327 51.2476 50.6391 51.2536 50.7424 51.308C53.3638 52.7166 56.1645 53.3513 59.146 53.2153C60.3982 53.1019 61.4954 52.7785 62.4376 52.2435C62.7476 52.0637 62.702 51.6043 62.3631 51.4909C60.7006 50.9363 59.4226 49.7801 58.5351 48.024C57.8999 46.7682 57.2449 45.5274 56.5641 44.2972C54.7239 40.9694 51.9931 38.5211 48.3733 36.9478C45.9434 35.8915 43.5226 35.1706 41.1048 34.7882C39.924 34.5978 38.7737 34.2955 37.6582 33.883C35.3849 33.0351 33.3713 32.0362 31.6177 30.8876C31.3624 30.7032 26.5071 27.1245 25.0042 21.4904C24.8005 20.5414 24.2535 18.7822 23.8386 17.4145L23.9936 17.1682V17.1667ZM12.7923 11.3512C12.7923 10.7165 13.312 10.1981 13.9518 10.1981C14.5916 10.1981 15.1113 10.715 15.1113 11.3512C15.1113 11.986 14.5916 12.5044 13.9518 12.5044C13.312 12.5044 12.7923 11.9875 12.7923 11.3512Z" fill="#3383FE"/>
<path d="M39.7007 21.9136L41.348 18.2336C42.9193 19.2673 45.1501 19.9731 47.2032 19.9731C49.2562 19.9731 50.0935 19.3928 50.0935 18.5359C50.0935 15.737 40.0046 17.7802 40.0046 11.2258C40.0046 8.07478 42.5895 5.50409 47.8627 5.50409C50.1695 5.50409 52.5523 6.03304 54.3014 7.04258L52.7559 10.7482C51.057 9.83996 49.3854 9.38657 47.8384 9.38657C45.7352 9.38657 44.9739 10.0923 44.9739 10.9749C44.9739 13.6726 55.0369 11.655 55.0369 18.1596C55.0369 21.235 52.452 23.8571 47.1789 23.8571C44.2642 23.8571 41.3738 23.0758 39.7007 21.9166V21.9136Z" fill="#3482FE"/>
<path d="M57.5215 16.6453C57.5215 12.5361 60.7918 9.61176 65.2778 9.61176C69.7637 9.61176 73.034 12.5361 73.034 16.6453C73.034 20.7544 69.8154 23.7286 65.2778 23.7286C60.7401 23.7286 57.5215 20.7786 57.5215 16.6453ZM68.1666 16.6453C68.1666 14.5778 66.925 13.4187 65.2778 13.4187C63.6305 13.4187 62.3874 14.5778 62.3874 16.6453C62.3874 18.7127 63.6548 19.9232 65.2778 19.9232C66.9007 19.9232 68.1666 18.7384 68.1666 16.6453Z" fill="#3482FE"/>
<path d="M75.6707 16.6453C75.6707 12.5361 78.9409 9.61176 83.5546 9.61176C86.6729 9.61176 89.0557 10.9976 89.9933 13.3673L86.2671 15.2579C85.6076 13.9718 84.6441 13.4172 83.5302 13.4172C81.8571 13.4172 80.5396 14.5763 80.5396 16.6438C80.5396 18.7112 81.8571 19.9217 83.5302 19.9217C84.6457 19.9217 85.6091 19.3671 86.2671 18.081L89.9933 19.9716C89.0557 22.3413 86.6729 23.7271 83.5546 23.7271C78.9409 23.7271 75.6707 20.8028 75.6707 16.6438V16.6453Z" fill="#3482FE"/>
<path d="M92.5525 5.78066C92.5525 4.34343 93.7181 3.23415 95.493 3.23415C97.268 3.23415 98.4335 4.26786 98.4335 5.70509C98.4335 7.21789 97.268 8.32717 95.493 8.32717C93.7181 8.32717 92.5525 7.21789 92.5525 5.78066ZM93.0844 9.83845H97.9001V23.502H93.0844V9.83845Z" fill="#3482FE"/>
<path d="M115.163 15.9138V23.502H110.677V21.7368C109.993 23.0471 108.624 23.7286 106.621 23.7286C103.327 23.7286 101.501 21.8879 101.501 19.5182C101.501 16.9974 103.352 15.4347 107.61 15.4347H110.347C110.271 14.0489 109.334 13.2675 107.433 13.2675C106.115 13.2675 104.644 13.7209 103.706 14.4524L102.083 11.2001C103.655 10.1664 105.987 9.61176 108.142 9.61176C112.604 9.61176 115.163 11.5779 115.163 15.9138ZM110.347 19.1162V17.9314H108.268C106.723 17.9314 106.165 18.486 106.165 19.3172C106.165 20.1484 106.825 20.7031 107.965 20.7031C109.03 20.7031 109.967 20.1983 110.347 19.1147V19.1162Z" fill="#3482FE"/>
<path d="M119.471 4.79681H124.287V23.502H119.471V4.79681Z" fill="#3482FE"/>
<path d="M66.3933 45.411L68.0406 41.731C69.6119 42.7648 71.8428 43.4705 73.8958 43.4705C75.9488 43.4705 76.7862 42.8902 76.7862 42.0333C76.7862 39.2344 66.6972 41.2777 66.6972 34.7232C66.6972 31.5722 69.2822 29.0015 74.5553 29.0015C76.8621 29.0015 79.2449 29.5305 80.9941 30.5385L79.4486 34.2442C77.7496 33.3359 76.078 32.8825 74.531 32.8825C72.4278 32.8825 71.6665 33.5883 71.6665 34.4708C71.6665 37.1685 81.7296 35.1509 81.7296 41.6555C81.7296 44.7309 79.1446 47.353 73.8715 47.353C70.9568 47.353 68.0664 46.5717 66.3933 45.4125V45.411Z" fill="#3482FE"/>
<path d="M99.3453 41.3774H89.3582C89.7639 42.7633 90.9553 43.5703 92.7288 43.5703C94.0721 43.5703 94.9596 43.1925 95.8972 42.3854L98.432 45.0075C97.1145 46.4704 95.1875 47.2261 92.5768 47.2261C87.6851 47.2261 84.5166 44.2262 84.5166 40.1427C84.5166 36.0592 87.7352 33.1092 92.0708 33.1092C96.1267 33.1092 99.4213 35.6799 99.4213 40.1926C99.4213 40.5447 99.3711 40.9996 99.3453 41.3774ZM89.2822 38.8566H94.9095C94.6557 37.4194 93.5919 36.5126 92.0966 36.5126C90.6013 36.5126 89.5618 37.4194 89.2822 38.8566Z" fill="#3482FE"/>
<path d="M116.684 39.4112V46.9994H112.198V45.2342C111.514 46.5445 110.145 47.2261 108.142 47.2261C104.848 47.2261 103.023 45.3853 103.023 43.0156C103.023 40.4948 104.874 38.9321 109.132 38.9321H111.869C111.793 37.5463 110.855 36.765 108.954 36.765C107.636 36.765 106.165 37.2184 105.228 37.9498L103.605 34.6975C105.176 33.6638 107.509 33.1092 109.664 33.1092C114.125 33.1092 116.684 35.0754 116.684 39.4112ZM111.867 42.6136V41.4288H109.788C108.243 41.4288 107.685 41.9834 107.685 42.8146C107.685 43.6458 108.345 44.2005 109.484 44.2005C110.55 44.2005 111.487 43.6957 111.867 42.6121V42.6136Z" fill="#3482FE"/>
<path d="M119.777 28.2942H124.593V46.9994H119.777V28.2942Z" fill="#3482FE"/>
<path d="M14.4746 10.248C14.6053 11.0354 13.9275 11.7109 13.1358 11.5794C12.6556 11.5009 12.2696 11.1155 12.1905 10.6394C12.0599 9.85204 12.7376 9.1765 13.5294 9.30798C14.0096 9.38657 14.3956 9.77195 14.4746 10.248Z" fill="white"/>
</g>
<defs>
<clipPath id="clip0_2_3">
<rect width="124.593" height="58" fill="white"/>
</clipPath>
</defs>
</svg>
