<svg width="27" height="31" viewBox="0 0 27 31" fill="none" xmlns="http://www.w3.org/2000/svg">
<path d="M1.6875 7.48438C1.16016 7.48438 0.75 7.07422 0.75 6.54688V4.20312C0.75 3.73438 1.16016 3.26562 1.6875 3.26562H26.0625C26.5312 3.26562 27 3.73438 27 4.20312V6.54688C27 7.07422 26.5312 7.48438 26.0625 7.48438H1.6875ZM1.6875 16.8594C1.16016 16.8594 0.75 16.4492 0.75 15.9219V13.5781C0.75 13.1094 1.16016 12.6406 1.6875 12.6406H26.0625C26.5312 12.6406 27 13.1094 27 13.5781V15.9219C27 16.4492 26.5312 16.8594 26.0625 16.8594H1.6875ZM1.6875 26.2344C1.16016 26.2344 0.75 25.8242 0.75 25.2969V22.9531C0.75 22.4844 1.16016 22.0156 1.6875 22.0156H26.0625C26.5312 22.0156 27 22.4844 27 22.9531V25.2969C27 25.8242 26.5312 26.2344 26.0625 26.2344H1.6875Z" fill="#F89E52"/>
</svg>
