<svg width="23" height="23" viewBox="0 0 23 23" fill="none" xmlns="http://www.w3.org/2000/svg">
<path d="M13.5501 5.75C14.5269 5.94057 15.4245 6.41826 16.1282 7.12194C16.8319 7.82561 17.3096 8.72326 17.5001 9.7M13.5501 1.75C15.5794 1.97544 17.4717 2.88417 18.9164 4.32701C20.361 5.76984 21.2722 7.66101 21.5001 9.69M9.72713 13.6131C8.52555 12.4115 7.57676 11.0528 6.88076 9.60323C6.8209 9.47854 6.79097 9.41619 6.76797 9.3373C6.68624 9.05695 6.74495 8.71269 6.91496 8.47526C6.9628 8.40845 7.01995 8.35129 7.13427 8.23698C7.48387 7.88737 7.65868 7.71257 7.77296 7.53679C8.20396 6.8739 8.20396 6.01932 7.77296 5.35643C7.65867 5.18065 7.48387 5.00585 7.13427 4.65624L6.9394 4.46137C6.40795 3.92993 6.14223 3.66421 5.85685 3.51987C5.28929 3.2328 4.61903 3.2328 4.05146 3.51987C3.76608 3.66421 3.50036 3.92993 2.96892 4.46137L2.81129 4.61901C2.28166 5.14863 2.01685 5.41344 1.8146 5.77348C1.59018 6.17298 1.42882 6.79347 1.43018 7.2517C1.43141 7.66464 1.51152 7.94687 1.67172 8.51131C2.53269 11.5447 4.15717 14.4071 6.54515 16.795C8.93313 19.183 11.7955 20.8075 14.8289 21.6685C15.3933 21.8287 15.6756 21.9088 16.0885 21.91C16.5467 21.9114 17.1672 21.75 17.5667 21.5256C17.9268 21.3233 18.1916 21.0585 18.7212 20.5289L18.8788 20.3713C19.4103 19.8398 19.676 19.5741 19.8203 19.2887C20.1074 18.7212 20.1074 18.0509 19.8203 17.4833C19.676 17.198 19.4103 16.9322 18.8788 16.4008L18.684 16.2059C18.3343 15.8563 18.1595 15.6815 17.9838 15.5672C17.3209 15.1362 16.4663 15.1362 15.8034 15.5672C15.6276 15.6815 15.4528 15.8563 15.1032 16.2059C14.9889 16.3202 14.9317 16.3774 14.8649 16.4252C14.6275 16.5953 14.2832 16.654 14.0029 16.5722C13.924 16.5492 13.8617 16.5193 13.737 16.4594C12.2873 15.7634 10.9287 14.8146 9.72713 13.6131Z" stroke="#C9CACD" stroke-width="2" stroke-linecap="round" stroke-linejoin="round"/>
</svg>
