<svg width="33" height="25" viewBox="0 0 33 25" fill="none" xmlns="http://www.w3.org/2000/svg">
<path d="M32.3498 9.19049C32.3498 10.6905 31.0373 11.9405 29.5373 11.9405L23.2873 11.9405C24.2873 13.003 24.4123 15.0655 22.9123 16.378C23.7873 17.8155 23.0373 19.6905 21.8498 20.253C22.4123 23.3155 20.4748 24.6905 17.3498 24.6905C17.1623 24.6905 16.4748 24.6905 16.3498 24.6905C12.4748 24.6905 11.5373 22.7529 8.59981 22.3154C7.84981 22.1904 7.34981 21.5654 7.34981 20.8154L7.34983 10.1279C7.34983 8.94044 7.97483 7.87794 9.09983 7.37794C10.9123 6.56545 15.0373 4.31546 15.8498 2.56546C16.2873 1.37796 17.1623 0.752959 18.3498 0.690461C20.4748 0.690465 21.9123 2.94047 21.0998 4.87797C20.8498 5.44047 20.5373 5.94046 20.1623 6.44046L29.5373 6.44048C30.9748 6.44048 32.3498 7.75299 32.3498 9.19049ZM6.34983 9.19044L6.34981 21.1904C6.34981 22.0654 5.66231 22.6904 4.84981 22.6904L1.84981 22.6904C0.974808 22.6904 0.349809 22.0654 0.349811 21.1904L0.349832 9.19043C0.349833 8.37793 0.974834 7.69043 1.84983 7.69043L4.84983 7.69044C5.66233 7.69044 6.34983 8.37794 6.34983 9.19044ZM4.59981 19.6904C4.59981 19.0029 4.03732 18.4404 3.34982 18.4404C2.59982 18.4404 2.09981 19.0029 2.09981 19.6904C2.09981 20.4404 2.59981 20.9404 3.34981 20.9404C4.03731 20.9404 4.59981 20.4404 4.59981 19.6904Z" fill="#EEEEEE"/>
</svg>
