<svg width="23" height="22" viewBox="0 0 23 22" fill="none" xmlns="http://www.w3.org/2000/svg">
<path d="M4.5 13.2864C2.64864 14.1031 1.5 15.2412 1.5 16.5C1.5 18.9853 5.97715 21 11.5 21C17.0228 21 21.5 18.9853 21.5 16.5C21.5 15.2412 20.3514 14.1031 18.5 13.2864M17.5 7C17.5 11.0637 13 13 11.5 16C10 13 5.5 11.0637 5.5 7C5.5 3.68629 8.18629 1 11.5 1C14.8137 1 17.5 3.68629 17.5 7ZM12.5 7C12.5 7.55228 12.0523 8 11.5 8C10.9477 8 10.5 7.55228 10.5 7C10.5 6.44772 10.9477 6 11.5 6C12.0523 6 12.5 6.44772 12.5 7Z" stroke="#C9CACD" stroke-width="2" stroke-linecap="round" stroke-linejoin="round"/>
</svg>
