<svg width="278" height="89" viewBox="0 0 278 89" fill="none" xmlns="http://www.w3.org/2000/svg">
<g clip-path="url(#clip0_28_35)">
<path d="M14.681 10.781L32.8776 43.6464C32.8776 33.8577 33.8071 31.112 36.5468 26.7174C36.6236 26.5922 36.7028 26.4693 36.7844 26.3394C37.7861 24.7555 39.0161 22.9351 40.5117 20.4978C40.7004 20.1337 40.8752 19.7765 41.0406 19.4217C46.9042 7.01256 40.8123 -0.0860119 38.9998 -0.00020758C37.1361 0.0902349 32.9638 6.4931 27.3728 6.4931C21.5487 6.4931 17.3205 8.90257 15.571 10.1108C14.9862 10.512 14.6787 10.781 14.6787 10.781H14.681Z" fill="white"/>
<path d="M36.7821 26.3421C37.7839 24.7582 39.0139 22.9377 40.5095 20.5004C40.6982 20.1363 40.8729 19.7792 41.0383 19.4244C39.785 18.353 38.145 17.6434 36.5795 16.6392C35.0675 15.6791 34.7973 13.9515 33.5393 12.7641C28.3722 7.88718 21.0922 6.41923 15.571 10.1135C15.4825 10.1737 15.4033 10.2294 15.3288 10.2851C14.122 11.1292 13.0061 12.2238 12.0207 13.592C10.4179 15.9621 9.14132 18.9861 8.18618 22.6687C5.9451 31.3095 5.05518 40.0893 5.50946 49.013C5.72145 53.1988 5.98936 57.387 6.30153 61.5706C6.45062 63.551 6.31084 65.8608 5.89152 68.5068C5.3161 71.6074 4.2538 74.0586 2.70461 75.8442C1.69822 77.0107 -0.0396705 78.5969 -6.71252e-05 80.1739C0.0325474 81.5468 1.54679 82.217 2.73722 82.3654C7.89731 83.0217 13.8541 79.7124 17.7725 76.6861C17.9309 76.5631 18.08 76.5724 18.2151 76.7162C22.5016 80.9623 29.0944 83.0773 34.9883 83.9168L36.9475 84.1649C37.2341 84.2044 37.2946 84.107 37.1316 83.8681C36.1904 82.5231 36.1065 80.5496 36.7053 79.1883C36.7891 78.9912 36.8544 78.9981 36.894 79.2068C37.7186 83.344 40.1391 86.0781 44.146 87.4139C48.74 88.9445 53.3759 89.3689 58.0585 88.6847C59.4795 88.4784 60.7492 88.0679 61.8837 87.4626C62.4125 87.182 62.3776 86.4167 61.8301 86.1825C60.6373 85.6816 59.5331 84.9812 58.5221 84.0861C58.0119 83.6339 58.0957 83.3672 58.7783 83.293C65.3012 82.595 71.4397 81.2638 77.3034 78.7129C77.4664 78.6387 77.6295 78.648 77.7879 78.7314C81.8065 80.8928 86.1 81.8668 90.6707 81.6581C92.5903 81.4841 94.2722 80.9879 95.7166 80.1669C96.1918 79.891 96.1219 79.186 95.6024 79.012C93.0539 78.161 91.0947 76.3869 89.7342 73.6922C88.7604 71.765 87.7563 69.8611 86.7127 67.9734C83.8915 62.8669 79.7052 59.1101 74.1561 56.6959C70.431 55.0749 66.7199 53.9688 63.0135 53.382C61.2034 53.0898 59.4399 52.626 57.73 51.9929C54.2449 50.692 51.1582 49.1591 48.4698 47.3966C48.0784 47.1137 40.6353 41.6222 38.3313 32.9768C38.0192 31.5205 37.1805 28.8211 36.5445 26.7224L36.7821 26.3444V26.3421ZM19.6106 17.4184C19.6106 16.4444 20.4073 15.649 21.3881 15.649C22.3688 15.649 23.1656 16.4421 23.1656 17.4184C23.1656 18.3924 22.3688 19.1878 21.3881 19.1878C20.4073 19.1878 19.6106 18.3947 19.6106 17.4184Z" fill="white"/>
<path d="M60.8611 33.6264L63.3864 27.9795C65.7952 29.5658 69.2151 30.6488 72.3624 30.6488C75.5097 30.6488 76.7933 29.7582 76.7933 28.4433C76.7933 24.1485 61.327 27.2838 61.327 17.2262C61.327 12.391 65.2897 8.44629 73.3734 8.44629C76.9098 8.44629 80.5626 9.25795 83.244 10.8071L80.8748 16.4933C78.2703 15.0996 75.7077 14.4039 73.3361 14.4039C70.112 14.4039 68.9448 15.4869 68.9448 16.8412C68.9448 20.9807 84.3715 17.8848 84.3715 27.8659C84.3715 32.5851 80.4088 36.6087 72.3251 36.6087C67.8569 36.6087 63.426 35.4097 60.8611 33.631V33.6264Z" fill="white"/>
<path d="M88.1804 25.5418C88.1804 19.2364 93.1937 14.749 100.071 14.749C106.948 14.749 111.961 19.2364 111.961 25.5418C111.961 31.8473 107.027 36.4111 100.071 36.4111C93.1145 36.4111 88.1804 31.8844 88.1804 25.5418ZM104.499 25.5418C104.499 22.3694 102.596 20.5907 100.071 20.5907C97.5455 20.5907 95.6398 22.3694 95.6398 25.5418C95.6398 28.7143 97.5827 30.5718 100.071 30.5718C102.559 30.5718 104.499 28.7537 104.499 25.5418Z" fill="white"/>
<path d="M116.003 25.5418C116.003 19.2364 121.016 14.749 128.089 14.749C132.869 14.749 136.522 16.8756 137.959 20.5118L132.247 23.4129C131.236 21.4394 129.759 20.5884 128.052 20.5884C125.487 20.5884 123.467 22.3671 123.467 25.5395C123.467 28.7119 125.487 30.5695 128.052 30.5695C129.762 30.5695 131.239 29.7184 132.247 27.7449L137.959 30.646C136.522 34.2823 132.869 36.4088 128.089 36.4088C121.016 36.4088 116.003 31.9215 116.003 25.5395V25.5418Z" fill="white"/>
<path d="M141.883 8.87047C141.883 6.66506 143.669 4.96289 146.39 4.96289C149.111 4.96289 150.898 6.54911 150.898 8.75452C150.898 11.0759 149.111 12.778 146.39 12.778C143.669 12.778 141.883 11.0759 141.883 8.87047ZM142.698 15.0971H150.08V36.0635H142.698V15.0971Z" fill="white"/>
<path d="M176.545 24.4194V36.0633H169.668V33.3547C168.619 35.3653 166.52 36.4111 163.45 36.4111C158.399 36.4111 155.602 33.5866 155.602 29.9503C155.602 26.0822 158.439 23.6843 164.967 23.6843H169.162C169.046 21.5577 167.608 20.3588 164.694 20.3588C162.674 20.3588 160.419 21.0545 158.982 22.1769L156.494 17.1863C158.903 15.6001 162.479 14.749 165.782 14.749C172.622 14.749 176.545 17.7661 176.545 24.4194ZM169.162 29.3334V27.5153H165.975C163.606 27.5153 162.751 28.3664 162.751 29.6419C162.751 30.9173 163.762 31.7684 165.509 31.7684C167.142 31.7684 168.58 30.9939 169.162 29.3311V29.3334Z" fill="white"/>
<path d="M183.149 7.36035H190.532V36.0631H183.149V7.36035Z" fill="white"/>
<path d="M101.781 69.683L104.306 64.0362C106.715 65.6224 110.135 66.7054 113.282 66.7054C116.429 66.7054 117.713 65.8149 117.713 64.5C117.713 60.2051 102.247 63.3405 102.247 53.2828C102.247 48.4476 106.209 44.5029 114.293 44.5029C117.829 44.5029 121.482 45.3146 124.164 46.8614L121.794 52.5477C119.19 51.1539 116.627 50.4582 114.256 50.4582C111.032 50.4582 109.865 51.5412 109.865 52.8955C109.865 57.035 125.291 53.9391 125.291 63.9202C125.291 68.6395 121.329 72.663 113.245 72.663C108.777 72.663 104.346 71.4641 101.781 69.6854V69.683Z" fill="white"/>
<path d="M152.296 63.4931H136.986C137.608 65.6197 139.434 66.858 142.153 66.858C144.212 66.858 145.573 66.2783 147.01 65.0399L150.896 69.0634C148.876 71.3083 145.922 72.4678 141.92 72.4678C134.421 72.4678 129.563 67.8645 129.563 61.5985C129.563 55.3324 134.498 50.8057 141.144 50.8057C147.362 50.8057 152.412 54.7503 152.412 61.675C152.412 62.2153 152.335 62.9134 152.296 63.4931ZM136.869 59.625H145.496C145.107 57.4196 143.476 56.0281 141.184 56.0281C138.891 56.0281 137.298 57.4196 136.869 59.625Z" fill="white"/>
<path d="M178.877 60.476V72.1199H172V69.4113C170.951 71.4219 168.852 72.4678 165.782 72.4678C160.731 72.4678 157.934 69.6432 157.934 66.007C157.934 62.1388 160.771 59.7409 167.299 59.7409H171.494C171.378 57.6144 169.94 56.4154 167.026 56.4154C165.006 56.4154 162.751 57.1111 161.314 58.2335L158.826 53.243C161.235 51.6567 164.811 50.8057 168.114 50.8057C174.954 50.8057 178.877 53.8227 178.877 60.476ZM171.492 65.3901V63.572H168.305C165.936 63.572 165.081 64.423 165.081 65.6985C165.081 66.974 166.092 67.8251 167.839 67.8251C169.472 67.8251 170.91 67.0505 171.492 65.3878V65.3901Z" fill="white"/>
<path d="M183.617 43.417H191V72.1197H183.617V43.417Z" fill="white"/>
<path d="M22.1896 15.7255C22.39 16.9337 21.351 17.9703 20.1372 17.7686C19.4011 17.648 18.8094 17.0566 18.6882 16.3261C18.4879 15.1179 19.5269 14.0813 20.7406 14.2831C21.4768 14.4037 22.0685 14.995 22.1896 15.7255Z" fill="#1F1D28"/>
</g>
<defs>
<clipPath id="clip0_28_35">
<rect width="191" height="89" fill="white"/>
</clipPath>
</defs>
</svg>
