<svg width="23" height="19" viewBox="0 0 23 19" fill="none" xmlns="http://www.w3.org/2000/svg">
<path d="M21 15.25L14.3571 9.25M8.64286 9.25L2.00003 15.25M1.5 4.25L9.66492 9.96544C10.3261 10.4283 10.6567 10.6597 11.0163 10.7493C11.3339 10.8285 11.6661 10.8285 11.9837 10.7493C12.3433 10.6597 12.6739 10.4283 13.3351 9.96544L21.5 4.25M6.3 17.25H16.7C18.3802 17.25 19.2202 17.25 19.862 16.923C20.4265 16.6354 20.8854 16.1765 21.173 15.612C21.5 14.9702 21.5 14.1302 21.5 12.45V6.05C21.5 4.36984 21.5 3.52976 21.173 2.88803C20.8854 2.32354 20.4265 1.8646 19.862 1.57698C19.2202 1.25 18.3802 1.25 16.7 1.25H6.3C4.61984 1.25 3.77976 1.25 3.13803 1.57698C2.57354 1.8646 2.1146 2.32354 1.82698 2.88803C1.5 3.52976 1.5 4.36984 1.5 6.05V12.45C1.5 14.1302 1.5 14.9702 1.82698 15.612C2.1146 16.1765 2.57354 16.6354 3.13803 16.923C3.77976 17.25 4.61984 17.25 6.3 17.25Z" stroke="#C9CACD" stroke-width="2" stroke-linecap="round" stroke-linejoin="round"/>
</svg>
